<?xml version="1.0" encoding="UTF-8"?>
<svg id="Calque_2" xmlns="http://www.w3.org/2000/svg" version="1.1" viewBox="0 0 226.9 226.9">
  <!-- Generator: Adobe Illustrator 30.2.0, SVG Export Plug-In . SVG Version: 2.1.1 Build 26)  -->
  <defs>
    <style>
      .st0 {
        fill: #fff;
      }
    </style>
  </defs>
  <g id="Calque_1-2">
    <path class="st0" d="M113.4,0C82.7,0,78.6,0,66.7.8c-11.9.4-20.3,2.5-27.6,5.3-7.6,2.9-13.9,6.7-20,13.1-6.4,6.5-10.2,12.7-13.1,20S1.2,54.6.8,66.7c-.4,12.1-.8,15.8-.8,46.7s0,34.8.8,46.7c.4,11.9,2.5,20.3,5.3,27.6,2.9,7.6,6.7,13.9,13.1,19.9,6.5,6.4,12.7,10.2,20,13.1,7.2,2.9,15.5,4.9,27.6,5.3,12.1.4,15.8.8,46.7.8s34.8,0,46.7-.8c11.9-.4,20.3-2.5,27.6-5.3,7.6-2.9,13.9-6.6,19.9-13.1,6.4-6.4,10.2-12.7,13.1-19.9,2.9-7.2,4.9-15.4,5.3-27.6s.8-15.8.8-46.7,0-34.8-.8-46.7c-.4-11.9-2.5-20.3-5.3-27.6-2.9-7.6-6.6-13.9-13.1-20-6.4-6.4-12.7-10.2-19.9-13.1-7.2-2.9-15.4-4.9-27.6-5.3C148,0,144.3,0,113.4,0M113.4,20.5c30.1,0,33.8,0,45.8.4,11.1.4,17,2.5,21.1,3.9,5.3,2.1,9.2,4.7,13.1,8.8,3.9,3.9,6.4,7.8,8.8,13.1,1.6,3.9,3.5,10,3.9,21.1.4,11.9.4,15.4.4,45.8s0,33.8-.4,45.8c-.4,11.1-2.5,17-3.9,21.1-2.1,5.3-4.7,9.2-8.8,13.1-3.9,3.9-7.8,6.4-13.1,8.8-3.9,1.6-10,3.5-21.1,3.9-11.9.4-15.4.4-45.8.4s-33.8,0-45.8-.4c-11.2-.4-17-2.5-21.1-3.9-5.3-2.1-9.2-4.7-13.1-8.8-3.9-3.9-6.5-7.8-8.8-13.1-1.6-3.9-3.5-10-3.9-21.1-.4-11.9-.4-15.4-.4-45.8s0-33.8.4-45.8c.4-11.2,2.5-17,3.9-21.1,2.1-5.3,4.7-9.2,8.8-13.1,3.9-3.9,7.8-6.5,13.1-8.8,3.9-1.6,10-3.5,21.1-3.9,11.9-.4,15.4-.4,45.8-.4"/>
    <path class="st0" d="M113.7,55.9c-32.1,0-57.9,26.3-57.9,57.9s26.3,57.9,57.9,57.9,57.9-26.3,57.9-57.9-25.5-57.9-57.9-57.9ZM113.7,151.1c-20.8,0-37.4-16.6-37.4-37.4s16.6-37.4,37.4-37.4,37.4,16.6,37.4,37.4-16.6,37.4-37.4,37.4Z"/>
    <circle class="st0" cx="173.8" cy="53.4" r="13.8"/>
  </g>
</svg>