<?xml version="1.0" encoding="UTF-8"?>
<svg id="Calque_2" xmlns="http://www.w3.org/2000/svg" version="1.1" viewBox="0 0 179.8 108">
  <!-- Generator: Adobe Illustrator 30.2.0, SVG Export Plug-In . SVG Version: 2.1.1 Build 45)  -->
  <defs>
    <style>
      .st0 {
        fill: #fff9ef;
      }
    </style>
  </defs>
  <g id="Calque_1-2">
    <g>
      <path class="st0" d="M49.2,102.4h-.7v2.4h.7c.8,0,1.2-.6,1.2-1.2s-.4-1.2-1.2-1.2M48.4,105.3v.6c0,1.3.2,1.5,1.2,1.5v.3h-3.5v-.3c1,0,1.2-.2,1.2-1.5v-2.3c0-1.3-.2-1.5-1.2-1.5v-.3h3.1c1.6,0,2.4.8,2.4,1.7s-.6,1.5-1.7,1.7l.8.9c.7.8,1.2,1.2,2,1.3v.3h-2l-2-2.5h-.3Z"/>
      <path class="st0" d="M60.3,103.5h-.3v-.3c-.2-.6-.5-.8-1.7-.8h-1v2c1.4,0,1.5-.1,1.5-1.1h.3v2.7h-.3c0-.9-.1-1.1-1.5-1.1v.8c0,1.3.2,1.5,1.1,1.5h.2c1.3,0,1.5-.2,1.6-.8v-.3h.4v1.7h-5.7v-.3c1,0,1.2-.2,1.2-1.5v-2.3c0-1.3-.2-1.5-1.2-1.5v-.3h5.2v1.7c.1,0,.1,0,.1,0Z"/>
      <path class="st0" d="M66.2,108c-.7,0-1.4-.4-1.6-.6,0,0-.2.4-.3.6h-.3v-2.5h.4c.1,1.2.9,1.9,2,1.9s1-.3,1-.9-.4-.8-1.1-1.2l-1-.5c-.7-.3-1.2-.9-1.2-1.7s.8-1.6,1.9-1.6,1.1.2,1.4.5c0,0,.2-.3.2-.5h.3v2.1h-.4c-.1-.8-.6-1.5-1.5-1.5s-1,.3-1,.7.4.7,1.2,1.1l1,.5c.9.4,1.2,1.1,1.2,1.6,0,1.1-1,1.9-2.2,1.9"/>
      <path class="st0" d="M72.9,102.4c-1.3,0-1.5.2-1.6.8v.3h-.4v-1.7h6.7v1.7c.1,0-.2,0-.2,0v-.3c-.2-.6-.4-.8-1.7-.8h-.8v3.6c0,1.3.2,1.5,1.2,1.5v.3h-3.6v-.3c1,0,1.2-.2,1.2-1.5v-3.6h-.8Z"/>
      <path class="st0" d="M82.7,103.4l-.9,1.9h1.8l-.9-1.9ZM81.3,106.4c-.3.7-.3,1,.8,1v.3h-2.8v-.3c.9,0,1.1-.2,1.5-1.2l2.2-4.6h.3l2.2,4.6c.4,1,.6,1.2,1.4,1.2v.3h-3.4v-.3c1,0,1.1-.3.8-1l-.3-.6h-2.3l-.3.6h0Z"/>
      <path class="st0" d="M95.1,103.7v1.8c0,1.7-1.1,2.6-2.6,2.6s-2.7-.9-2.7-2.6v-1.8c0-1.3-.2-1.5-1.2-1.5v-.3h3.5v.3c-1,0-1.2.2-1.2,1.5v1.8c0,1.2.7,1.8,1.7,1.8s1.7-.6,1.7-1.8v-1.8c0-1.3-.1-1.5-1.1-1.5v-.3h3v.3c-1,0-1.2.2-1.2,1.5"/>
      <path class="st0" d="M102.1,102.4h-.7v2.4h.7c.8,0,1.2-.6,1.2-1.2s-.4-1.2-1.2-1.2M101.4,105.3v.6c0,1.3.2,1.5,1.2,1.5v.3h-3.6v-.3c1,0,1.2-.2,1.2-1.5v-2.3c0-1.3-.2-1.5-1.2-1.5v-.3h3.1c1.6,0,2.4.8,2.4,1.7s-.6,1.5-1.7,1.7l.8.9c.7.8,1.2,1.2,2,1.3v.3h-2l-2-2.5h-.3Z"/>
      <path class="st0" d="M110.8,103.4l-.9,1.9h1.8l-.9-1.9ZM109.3,106.4c-.3.7-.3,1,.8,1v.3h-2.8v-.3c.9,0,1.1-.2,1.5-1.2l2.2-4.6h.3l2.2,4.6c.4,1,.6,1.2,1.4,1.2v.3h-3.4v-.3c1,0,1.1-.3.8-1l-.3-.6h-2.3l-.3.6h0Z"/>
      <path class="st0" d="M123.5,103.7v4.3h-.4l-4.2-4.4v2.4c0,1.3.2,1.5,1.2,1.5v.3h-2.9v-.3c1,0,1.2-.2,1.2-1.5v-2.3c0-1.3-.2-1.5-1.2-1.5v-.3h1.8l3.9,4.2v-2.3c0-1.3-.2-1.5-1.2-1.5v-.3h2.9v.3c-1,0-1.2.2-1.2,1.5"/>
      <path class="st0" d="M128.9,102.4c-1.3,0-1.5.2-1.6.8v.3h-.4v-1.7h6.7v1.7c.1,0-.2,0-.2,0v-.3c-.2-.6-.4-.8-1.7-.8h-.8v3.6c0,1.3.2,1.5,1.2,1.5v.3h-3.6v-.3c1,0,1.2-.2,1.2-1.5v-3.6h-.8Z"/>
    </g>
    <polygon class="st0" points="0 68.1 0 93.9 9.6 93.9 10.5 89.1 5.3 89.1 5.3 68.1 0 68.1"/>
    <polygon class="st0" points="12.5 68.1 22.5 68.1 23.4 72.9 17.8 72.9 17.8 79 22.1 79 22.1 83.5 17.8 83.5 17.8 89.1 23.2 89.1 22.3 93.9 12.5 93.9 12.5 68.1"/>
    <path class="st0" d="M35.5,72.6v10.2h2.6c.2,0,.3,0,.4-.1s0-.2,0-.4v-9.1c0-.3-.2-.5-.5-.5h-2.6ZM40.5,68.1c1,0,1.8.3,2.3.9.5.6.8,1.3.8,2.3v12.4c0,.5,0,1-.2,1.4-.1.4-.3.8-.6,1.1-.3.3-.7.6-1.1.7s-1.1.3-1.8.3h-4.4v6.9h-5.1v-25.8h10.2,0Z"/>
    <polygon class="st0" points="46 68.1 56 68.1 56.9 72.9 51.3 72.9 51.3 79 55.6 79 55.6 83.5 51.3 83.5 51.3 89.1 56.7 89.1 55.8 93.9 46 93.9 46 68.1"/>
    <polygon class="st0" points="69.3 68.1 70.5 72.9 67.1 72.9 67.1 93.9 61.8 93.9 61.8 72.9 58.3 72.9 59.7 68.1 69.3 68.1"/>
    <rect class="st0" x="72.3" y="68.1" width="5.2" height="25.8"/>
    <polygon class="st0" points="90.2 68.1 91.5 72.9 88 72.9 88 93.9 82.7 93.9 82.7 72.9 79.3 72.9 80.6 68.1 90.2 68.1"/>
    <path class="st0" d="M102.1,93.9c-1.5,0-2.5-.3-3.1-.9-.6-.6-.9-1.6-.9-3.1v-18.7c0-1,.3-1.8.9-2.3.6-.6,1.3-.8,2.2-.8h6.8l.9,4.8h-4.9c-.3,0-.5.2-.5.5v15.2c0,.3.2.5.5.5h4.9l-.9,4.8h-5.8,0Z"/>
    <polygon class="st0" points="124.3 93.9 119 93.9 119 83.6 116.2 83.6 116.2 93.9 110.9 93.9 110.9 68.1 116.2 68.1 116.2 79.1 119 79.1 119 68.1 124.3 68.1 124.3 93.9"/>
    <path class="st0" d="M132.3,86.6h2.4l-1.2-9.2s-1.2,9.2-1.2,9.2ZM131.8,90.7l-.5,3.2h-5.2l4.7-25.8h5.5l4.7,25.8h-5.2l-.5-3.2h-3.5,0Z"/>
    <polygon class="st0" points="142.7 68.1 148 68.1 148 89.1 153.2 89.1 152.4 93.9 142.7 93.9 142.7 68.1"/>
    <polygon class="st0" points="155.2 68.1 165.3 68.1 166.1 72.9 160.5 72.9 160.5 79 164.8 79 164.8 83.5 160.5 83.5 160.5 89.1 165.9 89.1 165 93.9 155.2 93.9 155.2 68.1"/>
    <polygon class="st0" points="168.9 68.1 167.6 72.9 171 72.9 171 93.9 176.3 93.9 176.3 72.9 179.8 72.9 178.5 68.1 168.9 68.1"/>
    <g>
      <path class="st0" d="M72.7,38.2c0,.6-.5,1-1,1h-2c-.6,0-1-.5-1-1v-2.9c0-.6.5-1,1-1h2c.6,0,1,.5,1,1v2.9ZM71.6,32.8h-2c-1.4,0-2.5,1.1-2.5,2.5v2.9c0,1.4,1.1,2.5,2.5,2.5h2c1.4,0,2.5-1.1,2.5-2.5v-2.9c0-1.4-1.1-2.5-2.5-2.5"/>
      <path class="st0" d="M129.4,55.8c.6-.7,1-1.6,1-2.6s-.7-2.6-1.8-3.4c1.1-.7,1.8-2,1.8-3.4s-.7-2.6-1.8-3.4c.8-.6,1.4-1.5,1.7-2.5h.9c.3,0,.6-.2.7-.4.1-.3,0-.6-.1-.8l-16.1-16.5,6.9-10.3,7.9,11.8-4.4-.8c-.4,0-.8.2-.8.6,0,.4.2.8.6.8l2.9.5,5.7,8.2-4-1.3c-.4-.1-.8,0-.9.5-.1.4,0,.8.5.9l2.1.7,6.4,9.8h-.4c0-.1-5.2-1.7-5.2-1.7-.4-.1-.8,0-.9.5-.1.4.1.8.5.9l1.9.6,8.3,11.4h-12.9ZM74,43.6h-6.8c-1.4,0-2.5,1.1-2.5,2.5v9.7h-7.1c.6-.7,1-1.6,1-2.6s-.7-2.6-1.8-3.4c1.1-.7,1.8-2,1.8-3.4s-.7-2.6-1.8-3.4c1.1-.7,1.8-2,1.8-3.4s-.2-1.4-.6-2l12.5-12.9,12.5,12.9c-.3.6-.6,1.3-.6,2,0,1.4.7,2.6,1.8,3.4-1.1.7-1.8,2-1.8,3.4s.7,2.6,1.8,3.4c-1.1.7-1.8,2-1.8,3.4s.4,1.9,1,2.6h-7.1v-9.7c0-1.4-1.1-2.5-2.5-2.5M75,55.8h-8.9v-9.7c0-.6.5-1,1-1h6.8c.6,0,1,.5,1,1v9.7ZM45.9,44.4l1.9-.6c.4-.1.6-.5.5-.9-.1-.4-.5-.6-.9-.5l-5.2,1.6h-.4c0,.1,6.4-9.7,6.4-9.7l2.1-.7c.4-.1.6-.5.5-.9-.1-.4-.5-.6-.9-.5l-4,1.3,5.7-8.2,2.9-.5c.4,0,.7-.5.6-.8,0-.4-.5-.6-.8-.6l-4.5.8,7.9-11.8,7.2,10.9-13,13.4s0,0-.2.2l-2.4,2.4c-.3.3-.3.8,0,1,.3.3.8.3,1,0l.3-.3c.1,1.2.8,2.3,1.7,3-1.1.7-1.8,2-1.8,3.4s.7,2.6,1.8,3.4c-1.1.7-1.8,2-1.8,3.4s.4,1.9,1,2.6h-13.8l8.3-11.4h0ZM76.8,2.3l-.3,7.3c0,.2,0,.4.2.5l6.8,7.5h-12.9c-.2,0-.4,0-.5.2l-4.3,4.5-4.6-6.9,15.6-13.1h0ZM105.7,5l4.2,7.9-.3,4.7h-6.3l-9.5-6.6,11.9-6h0ZM111,18.1l.3-5.2c0-.1,0-.3,0-.4l-3.1-5.8,10.9,8.4-4.5,6.7-3.6-3.7h0ZM78.2,2.1l22.5,15.6h-15.3l-7.5-8.2.3-7.3h0ZM121.3,39.1l-2-2.1c-.3-.3-.7-.3-1,0-.3.3-.3.7,0,1l1.1,1.1h-7.7l-14.5-14.9c-.3-.3-.7-.3-1,0-.3.3-.3.7,0,1l13.6,13.9h-7.5l-9-9.3c-.3-.3-.7-.3-1,0-.3.3-.3.7,0,1l8.1,8.3h-8.2l-2.2-2.2c0,0-.1-.1-.2-.2l-17.2-17.6h8.2l6.1,6.2c.1.1.3.2.5.2s.4,0,.5-.2c.3-.3.3-.7,0-1l-5.1-5.2h7.5l1.7,1.8c.1.1.3.2.5.2s.4,0,.5-.2c.3-.3.3-.7,0-1l-.7-.8h7.7l11.6,11.9c.1.1.3.2.5.2s.4,0,.5-.2c.3-.3.3-.7,0-1l-10.6-10.9h8.1l3.8,3.9h0l15.7,16.1h-8.2ZM86.7,43.8c1.5,0,2.6,1.2,2.6,2.6s-1.2,2.6-2.6,2.6-2.6-1.2-2.6-2.6,1.2-2.6,2.6-2.6M86.7,37c.7,0,1.3.3,1.8.7h0c.4.6.7,1.2.7,1.9,0,1.5-1.2,2.6-2.6,2.6s-2.6-1.2-2.6-2.6,1.2-2.6,2.6-2.6M57.1,36.6c-.6-.5-1.4-.9-2.3-.9l15.8-16.2,15.8,16.2c-.9,0-1.7.4-2.3.9l-13-13.3c-.3-.3-.8-.3-1,0,0,0-13,13.3-13,13.3ZM54.5,42.3c-1.5,0-2.6-1.2-2.6-2.6s.3-1.3.7-1.8h0c.5-.5,1.1-.8,1.8-.8,1.5,0,2.6,1.2,2.6,2.6s-1.2,2.6-2.6,2.6M54.5,49.1c-1.5,0-2.6-1.2-2.6-2.6s1.2-2.6,2.6-2.6,2.6,1.2,2.6,2.6-1.2,2.6-2.6,2.6M54.6,55.8h-.1c-1.4,0-2.6-1.2-2.6-2.6s1.2-2.6,2.6-2.6,2.6,1.2,2.6,2.6-1.2,2.6-2.6,2.6M84,53.2c0-1.5,1.2-2.6,2.6-2.6s2.6,1.2,2.6,2.6-1.2,2.6-2.6,2.6-2.6-1.2-2.6-2.6M104.9,43.8h21.4c1.5,0,2.6,1.2,2.6,2.6s-1.2,2.6-2.6,2.6h-6.5c-.4,0-.7.3-.7.7s.3.7.7.7h6.5c1.5,0,2.6,1.2,2.6,2.6s-1.2,2.6-2.6,2.6h-4.9s0,0,0,0h-31.6c.6-.7,1-1.6,1-2.6s-.4-1.9-1-2.6h22.1c.4,0,.7-.3.7-.7s-.3-.7-.7-.7h-22.1c.6-.7,1-1.6,1-2.6s-.4-1.9-1-2.6h7.9c.4,0,.7-.3.7-.7s-.3-.7-.7-.7h-7.9c.5-.6.9-1.4.9-2.2l.3.3c.1.1.3.2.5.2h37.3c-.4,1-1.3,1.8-2.5,1.8h-21.4c-.4,0-.7.3-.7.7s.3.7.7.7M144.3,56.1l-8-11,1,.3,2.3.7c0,0,.1,0,.2,0s.1,0,.2,0c0,0,0,0,.1,0,0,0,.1,0,.2-.1s0,0,.1,0c0,0,0,0,0-.1,0,0,0,0,0,0h0c0-.3,0-.5,0-.6l-6.5-9.9,1.8.6c.3,0,.6,0,.8-.2s.2-.6,0-.8l-6.1-8.8h.2s1,.2,1,.2c0,0,0,0,.1,0s0,0,.1,0c.2,0,.4-.1.6-.3.2-.2.1-.6,0-.8l-9.4-14.1c-.3-.4-.9-.4-1.2,0l-2,3-13.4-10.4s0,0,0,0c0,0-.2,0-.3-.1,0,0,0,0,0,0-.1,0-.2,0-.3,0h0l-13.2,6.7L78,.1s0,0,0,0C77.8,0,77.7,0,77.6,0h0C77.4,0,77.2,0,77.1.2l-16.8,14.1-2.3-3.4c-.3-.4-.9-.4-1.2,0l-9.4,14.1c-.2.2-.2.5,0,.8.1.2.3.3.6.3,0,0,0,0,0,0s0,0,.1,0l1-.2h.2s-6.1,8.7-6.1,8.7c-.2.2-.2.6,0,.8s.5.3.8.2l1.8-.6-6.5,9.9c-.1.2-.1.4,0,.5h0c0,.1,0,.1,0,.2,0,0,0,0,0,.1s0,0,0,0c0,0,.1,0,.2.1,0,0,0,0,.1,0,0,0,.1,0,.2,0s.1,0,.2,0l2.3-.7,1-.3-8,11c-.2.2-.2.5,0,.8s.4.4.6.4h18.1c0,0,.1,0,.2,0h71.8c0,0,.1,0,.2,0h17.2c.3,0,.5-.2.6-.4.1-.2.1-.5,0-.8"/>
    </g>
  </g>
</svg>