<?xml version="1.0" encoding="UTF-8"?>
<svg id="Calque_2" xmlns="http://www.w3.org/2000/svg" version="1.1" viewBox="0 0 124.5 18.5">
  <!-- Generator: Adobe Illustrator 30.3.0, SVG Export Plug-In . SVG Version: 2.1.1 Build 22)  -->
  <defs>
    <style>
      .st0 {
        fill: #fff;
      }
    </style>
  </defs>
  <g>
    <path class="st0" d="M39.7,1.8v.3c0,.6,0,.7.6.7v.2h-1.7v-.2c.5,0,.6-.1.6-.7V1c0-.6,0-.7-.6-.7V0h1.5c.8,0,1.2.4,1.2.8s-.3.7-.8.8l.4.4c.3.4.6.6,1,.6v.2h-1l-.9-1.2h-.1ZM40.1.4h-.3v1.1h.3c.4,0,.6-.3.6-.6s-.2-.6-.6-.6Z"/>
    <path class="st0" d="M45.4.9h-.1v-.2c-.1-.3-.2-.4-.8-.4h-.5v1c.7,0,.7,0,.7-.5h.2v1.3h-.2c0-.4,0-.5-.7-.5v.4c0,.6,0,.7.5.7h.1c.6,0,.7-.1.8-.4v-.2h.2v.8h-2.7v-.2c.5,0,.6-.1.6-.7V1c0-.6,0-.7-.6-.7V0h2.5v.8Z"/>
    <path class="st0" d="M48.3,3c-.3,0-.6-.2-.8-.3,0,0-.1.2-.1.3h-.2v-1.2h.2c0,.6.5.9,1,.9s.5-.2.5-.4-.2-.4-.5-.6l-.5-.2c-.3-.2-.6-.4-.6-.8S47.6,0,48.1,0s.5.1.7.2c0,0,0-.1.1-.2h.2V1h-.2c0-.4-.3-.7-.7-.7s-.5.1-.5.3.2.3.6.5l.5.2c.4.2.6.5.6.8,0,.5-.5.9-1,.9Z"/>
    <path class="st0" d="M51.4.4c-.6,0-.7.1-.8.4v.2h-.2V0h3.2v.8c0,0,0,0,0,0v-.2c-.1-.3-.2-.4-.8-.4h-.4v1.7c0,.6,0,.7.6.7v.2h-1.7v-.2c.5,0,.6-.1.6-.7V.4h-.4Z"/>
    <path class="st0" d="M55.4,2.3c-.2.3-.2.5.4.5v.2h-1.4v-.2c.4,0,.5-.1.7-.6L56.2,0h.2l1,2.2c.2.5.3.6.7.6v.2h-1.6v-.2c.5,0,.5-.1.4-.5v-.3h-1.2v.3ZM56.1.9l-.4.9h.9l-.4-.9Z"/>
    <path class="st0" d="M62,1v.8c0,.8-.5,1.2-1.2,1.2s-1.3-.4-1.3-1.2v-.8c0-.6,0-.7-.6-.7V0h1.7v.2c-.5,0-.6.1-.6.7v.9c0,.6.3.8.8.8s.8-.3.8-.8v-.9c0-.6,0-.7-.5-.7V0h1.4v.2c-.5,0-.6.1-.6.7Z"/>
    <path class="st0" d="M65,1.8v.3c0,.6,0,.7.6.7v.2h-1.7v-.2c.5,0,.6-.1.6-.7V1c0-.6,0-.7-.6-.7V0h1.5c.8,0,1.2.4,1.2.8s-.3.7-.8.8l.4.4c.3.4.6.6,1,.6v.2h-1l-.9-1.2h-.1ZM65.4.4h-.3v1.1h.3c.4,0,.6-.3.6-.6s-.2-.6-.6-.6Z"/>
    <path class="st0" d="M68.8,2.3c-.2.3-.2.5.4.5v.2h-1.4v-.2c.4,0,.5-.1.7-.6L69.6,0h.2l1,2.2c.2.5.3.6.7.6v.2h-1.6v-.2c.5,0,.5-.1.4-.5v-.3h-1.2v.3ZM69.5.9l-.4.9h.9l-.4-.9Z"/>
    <path class="st0" d="M75.6,1v2.1h-.2l-2-2.1v1.1c0,.6,0,.7.6.7v.2h-1.4v-.2c.5,0,.6-.1.6-.7V1c0-.6,0-.7-.6-.7V0h.8l1.9,2V1c0-.6,0-.7-.6-.7V0h1.4v.2c-.5,0-.6.1-.6.7Z"/>
    <path class="st0" d="M78.2.4c-.6,0-.7.1-.8.4v.2h-.2V0h3.2v.8c0,0,0,0,0,0v-.2c-.1-.3-.2-.4-.8-.4h-.4v1.7c0,.6,0,.7.6.7v.2h-1.7v-.2c.5,0,.6-.1.6-.7V.4h-.4Z"/>
  </g>
  <g>
    <path class="st0" d="M38.6,6.2h2.5v10.1h2.5l-.4,2.3h-4.6V6.2Z"/>
    <path class="st0" d="M44.6,6.2h4.8l.4,2.3h-2.7v2.9h2v2.1h-2v2.7h2.6l-.4,2.3h-4.7V6.2Z"/>
    <path class="st0" d="M58,6.2c.5,0,.9.1,1.1.4.2.3.4.6.4,1.1v5.9c0,.2,0,.5,0,.7,0,.2-.1.4-.3.5-.1.1-.3.3-.5.3-.2,0-.5.1-.9.1h-2.1v3.3h-2.5V6.2h4.9ZM55.6,8.3v4.9h1.2c.1,0,.2,0,.2,0s0-.1,0-.2v-4.4c0-.2,0-.2-.2-.2h-1.2Z"/>
    <path class="st0" d="M60.6,6.2h4.8l.4,2.3h-2.7v2.9h2v2.1h-2v2.7h2.6l-.4,2.3h-4.7V6.2Z"/>
    <path class="st0" d="M71.7,6.2l.6,2.3h-1.7v10.1h-2.5v-10.1h-1.7l.6-2.3h4.6Z"/>
    <path class="st0" d="M73.2,6.2h2.5v12.4h-2.5V6.2Z"/>
    <path class="st0" d="M81.7,6.2l.6,2.3h-1.7v10.1h-2.5v-10.1h-1.7l.6-2.3h4.6Z"/>
    <path class="st0" d="M87.4,18.5c-.7,0-1.2-.1-1.5-.4s-.4-.8-.4-1.5V7.7c0-.5.1-.9.4-1.1s.6-.4,1-.4h3.3l.4,2.3h-2.4c-.1,0-.2,0-.2.2v7.3c0,.2,0,.2.2.2h2.4l-.4,2.3h-2.8Z"/>
    <path class="st0" d="M98,18.5h-2.5v-4.9h-1.3v4.9h-2.5V6.2h2.5v5.3h1.3v-5.3h2.5v12.4Z"/>
    <path class="st0" d="M101.6,17l-.2,1.5h-2.5l2.2-12.4h2.6l2.2,12.4h-2.5l-.2-1.5h-1.7ZM101.8,15h1.1l-.6-4.4-.6,4.4Z"/>
    <path class="st0" d="M106.8,6.2h2.5v10.1h2.5l-.4,2.3h-4.6V6.2Z"/>
    <path class="st0" d="M112.8,6.2h4.8l.4,2.3h-2.7v2.9h2v2.1h-2v2.7h2.6l-.4,2.3h-4.7V6.2Z"/>
    <path class="st0" d="M123.9,6.2l.6,2.3h-1.7v10.1h-2.5v-10.1h-1.7l.6-2.3h4.6Z"/>
  </g>
  <g>
    <path class="st0" d="M11.6,10.6h-.7c-.4,0-.8.4-.8.8v.9c0,.4.4.8.8.8h.7c.4,0,.8-.4.8-.8v-.9c0-.4-.4-.8-.8-.8ZM11.9,12.4c0,.2-.1.3-.3.3h-.7c-.2,0-.3-.1-.3-.3v-.9c0-.2.1-.3.3-.3h.7c.2,0,.3.1.3.3v.9Z"/>
    <path class="st0" d="M35,18.1l-2.6-3.5h.3c0,0,.7.3.7.3,0,0,0,0,0,0s0,0,0,0c0,0,0,0,0,0,0,0,0,0,0,0,0,0,0,0,0,0,0,0,0,0,0,0,0,0,0,0,0,0s0,0,0,0c0,0,0-.1,0-.2l-2.1-3.2.6.2c0,0,.2,0,.3,0s0-.2,0-.3l-2-2.8h0s.3,0,.3,0c0,0,0,0,0,0s0,0,0,0c0,0,.1,0,.2,0,0,0,0-.2,0-.3l-3-4.5c0-.1-.3-.1-.4,0l-.7,1-4.3-3.3s0,0,0,0c0,0,0,0,0,0,0,0,0,0,0,0,0,0,0,0-.1,0,0,0,0,0,0,0h0s0,0,0,0,0,0,0,0l-4.3,2.1L13.6.1s0,0,0,0c0,0,0,0-.1,0h0s0,0,0,0c0,0-.1,0-.1,0l-5.4,4.5-.7-1.1c0-.1-.3-.1-.4,0l-3,4.5c0,0,0,.2,0,.3,0,0,.1,0,.2,0,0,0,0,0,0,0s0,0,0,0h.3c0,0,0,0,0,0l-2,2.8c0,0,0,.2,0,.3s.2.1.3,0l.6-.2-2.1,3.2c0,0,0,.1,0,.2,0,0,0,0,0,0s0,0,0,0c0,0,0,0,0,0,0,0,0,0,0,0,0,0,0,0,0,0,0,0,0,0,0,0,0,0,0,0,0,0s0,0,0,0l.7-.2h.3c0,0-2.6,3.4-2.6,3.4,0,0,0,.2,0,.2,0,0,.1.1.2.1h5.8s0,0,0,0,0,0,0,0h0s10.3,0,10.3,0h0s12.7,0,12.7,0c0,0,0,0,0,0h5.5c0,0,.2,0,.2-.1,0,0,0-.2,0-.2ZM22.3,14.2h6.9c.5,0,.8.4.8.8s-.4.8-.8.8h-2s0,0,0,0h0c-.1,0-.2.1-.2.2s.1.2.2.2h2.1c.5,0,.8.4.8.8s-.4.8-.8.8h-1.6s0,0,0,0h-10.2c.2-.2.3-.5.3-.8s-.1-.6-.3-.8h7.1c.1,0,.2-.1.2-.2s-.1-.2-.2-.2h0s0,0,0,0h-7.1c.2-.2.3-.5.3-.8s-.1-.6-.3-.8h2.5c.1,0,.2-.1.2-.2s-.1-.2-.2-.2h-2.5c.2-.2.3-.4.3-.7h0c0,.1.1.2.2.2h12c-.1.3-.4.6-.8.6h-6.9c-.1,0-.2.1-.2.2s.1.2.2.2ZM15.6,17.2c0-.5.4-.8.8-.8s.8.4.8.8-.4.8-.8.8-.8-.4-.8-.8ZM6.1,18h0c-.5,0-.8-.4-.8-.8s.4-.8.8-.8.8.4.8.8-.4.8-.8.8ZM6.1,15.9c-.5,0-.8-.4-.8-.8s.4-.8.8-.8.8.4.8.8-.4.8-.8.8ZM6.1,13.7c-.5,0-.8-.4-.8-.8s0-.4.2-.6h0c.2-.2.4-.3.6-.3.5,0,.8.4.8.8s-.4.8-.8.8ZM6.9,11.9c-.2-.2-.5-.3-.7-.3l5.1-5.2,5.1,5.2c-.3,0-.5.1-.7.3l-4.2-4.3c0,0-.2,0-.3,0l-4.2,4.3ZM16.4,12c.2,0,.4,0,.6.2h0c.1.2.2.4.2.6,0,.5-.4.8-.8.8s-.8-.4-.8-.8.4-.8.8-.8ZM16.4,14.2c.5,0,.8.4.8.8s-.4.8-.8.8-.8-.4-.8-.8.4-.8.8-.8ZM27.6,12.7l-.7-.7c0,0-.2,0-.3,0s0,.2,0,.3l.3.4h-2.5l-4.7-4.8c0,0-.2,0-.3,0,0,0,0,.2,0,.3l4.4,4.5h-2.4l-2.9-3c0,0-.2,0-.3,0,0,0,0,.2,0,.3l2.6,2.7h-2.6l-.7-.7s0,0,0,0l-5.5-5.7h2.6l2,2s.1,0,.2,0,.1,0,.2,0c0,0,0-.2,0-.3l-1.6-1.7h2.4l.6.6s.1,0,.2,0,.1,0,.2,0c0,0,0-.2,0-.3l-.2-.2h2.5l3.7,3.8s.1,0,.2,0,.1,0,.2,0c0,0,0-.2,0-.3l-3.4-3.5h2.6l1.2,1.3h0s0,0,0,0l5,5.2h-2.6ZM13.7.8l7.2,5h-4.9l-2.4-2.7V.8ZM24.3,5.9v-1.7c.1,0,0,0,0-.1l-1-1.9,3.5,2.7-1.4,2.2-1.2-1.2ZM22.5,1.7l1.3,2.6v1.5h-2.1l-3.1-2.1,3.8-1.9ZM13.3.8v2.4c0,0,0,.1,0,.2l2.2,2.4h-4.1c0,0-.1,0-.2,0l-1.4,1.4-1.5-2.2L13.3.8ZM3.3,14.4l.6-.2c.1,0,.2-.2.2-.3,0-.1-.2-.2-.3-.2l-1.7.5h-.1s2.1-3.1,2.1-3.1l.7-.2c.1,0,.2-.2.1-.3s-.2-.2-.3-.1l-1.3.4,1.8-2.6.9-.2c.1,0,.2-.1.2-.3,0-.1-.1-.2-.3-.2l-1.4.3,2.5-3.8,2.3,3.5-4.2,4.3s0,0,0,0l-.8.8c0,0,0,.2,0,.3,0,0,.2,0,.3,0h0c0,.3.2.7.6.9-.3.2-.6.6-.6,1.1s.2.8.6,1.1c-.3.2-.6.6-.6,1.1s.1.6.3.8H.7s2.7-3.7,2.7-3.7ZM12.7,18h-2.8v-3.1c0-.2.1-.3.3-.3h2.2c.2,0,.3.1.3.3v3.1ZM12.4,14.1h-2.2c-.4,0-.8.4-.8.8v3.1h-2s0,0,0,0h-.3c.2-.2.3-.5.3-.8s-.2-.8-.6-1.1c.3-.2.6-.6.6-1.1s-.2-.8-.6-1.1c.3-.2.6-.6.6-1.1s0-.5-.2-.6l4-4.1,4,4.1c-.1.2-.2.4-.2.6,0,.4.2.8.6,1.1-.3.2-.6.6-.6,1.1s.2.8.6,1.1c-.3.2-.6.6-.6,1.1s.1.6.3.8h-2.3v-3.1c0-.4-.4-.8-.8-.8ZM30.2,18c.2-.2.3-.5.3-.8s-.2-.8-.6-1.1c.3-.2.6-.6.6-1.1s-.2-.8-.6-1.1c.3-.2.5-.5.5-.8h.3c0,0,.2,0,.2-.1,0,0,0-.2,0-.3l-5.2-5.3,2.2-3.3,2.5,3.8-1.4-.3c-.1,0-.2,0-.3.2,0,.1,0,.2.2.3l.9.2,1.8,2.6-1.3-.4c-.1,0-.3,0-.3.1s0,.3.1.3l.7.2,2.1,3.2h-.1s-1.7-.5-1.7-.5c-.1,0-.3,0-.3.2,0,.1,0,.3.2.3l.6.2,2.7,3.7h-4.1Z"/>
  </g>
</svg>