<?xml version="1.0" encoding="UTF-8"?>
<svg id="Calque_2" data-name="Calque 2" xmlns="http://www.w3.org/2000/svg" xmlns:xlink="http://www.w3.org/1999/xlink" viewBox="0 0 179.76 108">
  <defs>
    <style>
      .cls-1 {
        fill: none;
      }

      .cls-2 {
        fill: #6a4430;
      }

      .cls-3 {
        clip-path: url(#clippath-1);
      }

      .cls-4 {
        clip-path: url(#clippath-3);
      }

      .cls-5 {
        clip-path: url(#clippath-2);
      }

      .cls-6 {
        fill: #af6950;
      }

      .cls-7 {
        clip-path: url(#clippath);
      }
    </style>
    <clipPath id="clippath">
      <rect class="cls-1" width="179.76" height="108"/>
    </clipPath>
    <clipPath id="clippath-1">
      <rect class="cls-1" width="179.76" height="108"/>
    </clipPath>
    <clipPath id="clippath-2">
      <rect class="cls-1" width="179.76" height="108"/>
    </clipPath>
    <clipPath id="clippath-3">
      <rect class="cls-1" width="179.76" height="108"/>
    </clipPath>
  </defs>
  <g id="Calque_1-2" data-name="Calque 1">
    <g class="cls-7">
      <path class="cls-6" d="M49.17,102.36h-.73v2.37h.73c.8,0,1.16-.55,1.16-1.18s-.36-1.2-1.16-1.2M48.44,105.29v.64c0,1.27.16,1.5,1.16,1.5v.34h-3.55v-.34c1,0,1.16-.23,1.16-1.5v-2.28c0-1.27-.16-1.48-1.16-1.48v-.34h3.14c1.57,0,2.41.75,2.41,1.73,0,.79-.59,1.48-1.69,1.68l.82.89c.71.78,1.23,1.19,2,1.3v.34h-2l-1.98-2.48h-.3Z"/>
      <path class="cls-6" d="M60.32,103.51h-.29l-.09-.34c-.16-.59-.36-.8-1.62-.8h-.98v2c1.39,0,1.5-.12,1.5-1.05h.34v2.66h-.34c0-.93-.11-1.05-1.5-1.05v.82c0,1.27.16,1.48,1.09,1.48h.25c1.27,0,1.46-.21,1.62-.8l.09-.32h.27l-.11,1.68h-5.6v-.34c1,0,1.16-.23,1.16-1.5v-2.28c0-1.27-.16-1.48-1.16-1.48v-.34h5.24l.12,1.68Z"/>
      <path class="cls-6" d="M66.25,108c-.71,0-1.36-.38-1.62-.61-.09.09-.25.36-.28.61h-.34v-2.46h.38c.12,1.18.94,1.87,2,1.87.57,0,1.03-.32,1.03-.86,0-.46-.41-.82-1.14-1.16l-1-.48c-.73-.34-1.25-.93-1.25-1.71,0-.86.8-1.59,1.89-1.59.59,0,1.09.21,1.41.46.07-.07.18-.27.21-.48h.34v2.1h-.38c-.12-.84-.59-1.53-1.52-1.53-.52,0-.98.28-.98.73s.38.71,1.23,1.11l1,.48c.86.41,1.18,1.07,1.18,1.61,0,1.12-.98,1.91-2.16,1.91"/>
      <path class="cls-6" d="M72.87,102.36c-1.28,0-1.48.21-1.62.8l-.09.34h-.3l.14-1.68h6.56l.12,1.68h-.29l-.09-.34c-.16-.59-.34-.8-1.62-.8h-.8v3.57c0,1.27.16,1.5,1.16,1.5v.34h-3.55v-.34c.98,0,1.16-.23,1.16-1.5v-3.57h-.78Z"/>
      <path class="cls-6" d="M82.7,103.4l-.89,1.91h1.78l-.89-1.91ZM81.27,106.43c-.34.71-.34,1,.77,1v.34h-2.83v-.34c.89,0,1.05-.23,1.5-1.21l2.18-4.62h.32l2.16,4.62c.45.96.62,1.21,1.43,1.21v.34h-3.44v-.34c1.02,0,1.12-.29.79-1l-.27-.59h-2.32l-.27.59Z"/>
      <path class="cls-6" d="M95.08,103.65v1.75c0,1.69-1.11,2.59-2.59,2.59s-2.71-.89-2.71-2.59v-1.75c0-1.27-.16-1.48-1.16-1.48v-.34h3.51v.34c-.98,0-1.16.21-1.16,1.48v1.84c0,1.18.71,1.75,1.69,1.75s1.73-.57,1.73-1.75v-1.84c0-1.27-.14-1.48-1.14-1.48v-.34h2.98v.34c-1,0-1.16.21-1.16,1.48"/>
      <path class="cls-6" d="M102.1,102.36h-.73v2.37h.73c.8,0,1.16-.55,1.16-1.18s-.36-1.2-1.16-1.2M101.36,105.29v.64c0,1.27.16,1.5,1.16,1.5v.34h-3.55v-.34c1,0,1.16-.23,1.16-1.5v-2.28c0-1.27-.16-1.48-1.16-1.48v-.34h3.14c1.57,0,2.41.75,2.41,1.73,0,.79-.59,1.48-1.69,1.68l.82.89c.71.78,1.23,1.19,2,1.3v.34h-2l-1.98-2.48h-.3Z"/>
      <path class="cls-6" d="M110.77,103.4l-.89,1.91h1.78l-.89-1.91ZM109.34,106.43c-.34.71-.34,1,.77,1v.34h-2.83v-.34c.89,0,1.05-.23,1.5-1.21l2.18-4.62h.32l2.16,4.62c.45.96.62,1.21,1.43,1.21v.34h-3.44v-.34c1.02,0,1.12-.29.78-1l-.27-.59h-2.32l-.27.59Z"/>
      <path class="cls-6" d="M123.47,103.65v4.33h-.38l-4.16-4.42v2.37c0,1.27.16,1.5,1.16,1.5v.34h-2.87v-.34c1,0,1.16-.23,1.16-1.5v-2.28c0-1.27-.16-1.48-1.16-1.48v-.34h1.77l3.92,4.16v-2.34c0-1.27-.16-1.48-1.16-1.48v-.34h2.87v.34c-1,0-1.16.21-1.16,1.48"/>
      <path class="cls-6" d="M128.9,102.36c-1.28,0-1.48.21-1.62.8l-.09.34h-.3l.14-1.68h6.56l.12,1.68h-.29l-.09-.34c-.16-.59-.34-.8-1.62-.8h-.8v3.57c0,1.27.16,1.5,1.16,1.5v.34h-3.55v-.34c.98,0,1.16-.23,1.16-1.5v-3.57h-.78Z"/>
    </g>
    <polygon class="cls-2" points="0 68.08 0 93.92 9.62 93.92 10.52 89.11 5.31 89.11 5.31 68.08 0 68.08"/>
    <polygon class="cls-2" points="12.48 68.08 22.53 68.08 23.42 72.89 17.79 72.89 17.79 79.02 22.06 79.02 22.06 83.48 17.79 83.48 17.79 89.11 23.2 89.11 22.31 93.92 12.48 93.92 12.48 68.08"/>
    <g class="cls-3">
      <path class="cls-2" d="M35.5,72.61v10.16h2.57c.21,0,.35-.04.41-.12.06-.08.09-.22.09-.41v-9.13c0-.33-.15-.5-.46-.5h-2.6ZM40.53,68.08c1.02,0,1.79.28,2.3.86.51.57.77,1.33.77,2.28v12.37c0,.5-.05.96-.16,1.37-.11.42-.3.78-.59,1.09-.28.31-.66.55-1.14.73-.48.18-1.07.27-1.78.27h-4.42v6.88h-5.13v-25.84h10.16Z"/>
    </g>
    <polygon class="cls-2" points="45.98 68.08 56.03 68.08 56.93 72.89 51.29 72.89 51.29 79.02 55.57 79.02 55.57 83.48 51.29 83.48 51.29 89.11 56.71 89.11 55.82 93.92 45.98 93.92 45.98 68.08"/>
    <polygon class="cls-2" points="69.26 68.08 70.54 72.89 67.09 72.89 67.09 93.92 61.81 93.92 61.81 72.89 58.35 72.89 59.71 68.08 69.26 68.08"/>
    <rect class="cls-2" x="72.33" y="68.08" width="5.17" height="25.84"/>
    <polygon class="cls-2" points="90.18 68.08 91.47 72.89 88.01 72.89 88.01 93.92 82.73 93.92 82.73 72.89 79.28 72.89 80.63 68.08 90.18 68.08"/>
    <g class="cls-5">
      <path class="cls-2" d="M102.09,93.92c-1.5,0-2.54-.31-3.14-.93-.59-.62-.89-1.64-.89-3.07v-18.68c0-1.02.29-1.81.87-2.35.58-.55,1.3-.82,2.16-.82h6.81l.89,4.81h-4.95c-.31,0-.47.17-.47.5v15.22c0,.33.16.5.47.5h4.95l-.93,4.81h-5.78Z"/>
    </g>
    <polygon class="cls-2" points="124.3 93.92 119.02 93.92 119.02 83.59 116.21 83.59 116.21 93.92 110.93 93.92 110.93 68.08 116.21 68.08 116.21 79.13 119.02 79.13 119.02 68.08 124.3 68.08 124.3 93.92"/>
    <path class="cls-2" d="M132.32,86.62h2.39l-1.18-9.16-1.21,9.16ZM131.75,90.72l-.47,3.21h-5.2l4.67-25.84h5.52l4.67,25.84h-5.21l-.46-3.21h-3.53Z"/>
    <polygon class="cls-2" points="142.73 68.08 148.04 68.08 148.04 89.11 153.24 89.11 152.35 93.92 142.73 93.92 142.73 68.08"/>
    <polygon class="cls-2" points="155.2 68.08 165.26 68.08 166.15 72.89 160.51 72.89 160.51 79.02 164.79 79.02 164.79 83.48 160.51 83.48 160.51 89.11 165.93 89.11 165.04 93.92 155.2 93.92 155.2 68.08"/>
    <polygon class="cls-2" points="168.93 68.08 167.57 72.89 171.03 72.89 171.03 93.92 176.3 93.92 176.3 72.89 179.76 72.89 178.48 68.08 168.93 68.08"/>
    <g class="cls-4">
      <path class="cls-6" d="M72.65,38.16c0,.57-.46,1.03-1.03,1.03h-2.04c-.57,0-1.03-.46-1.03-1.03v-2.9c0-.57.46-1.03,1.03-1.03h2.04c.57,0,1.03.46,1.03,1.03v2.9ZM71.62,32.78h-2.04c-1.37,0-2.48,1.11-2.48,2.48v2.9c0,1.37,1.11,2.48,2.48,2.48h2.04c1.37,0,2.48-1.11,2.48-2.48v-2.9c0-1.37-1.11-2.48-2.48-2.48"/>
      <path class="cls-6" d="M129.42,55.8c.6-.71.98-1.62.98-2.63,0-1.4-.71-2.63-1.78-3.37,1.07-.74,1.78-1.97,1.78-3.37s-.71-2.63-1.78-3.37c.84-.58,1.44-1.47,1.67-2.5h.85c.29,0,.55-.17.67-.44.11-.27.05-.58-.15-.79l-16.06-16.5,6.89-10.33,7.86,11.78-4.45-.83c-.38-.07-.77.19-.85.58-.07.39.19.77.58.84l2.9.54,5.67,8.17-4.03-1.33c-.38-.13-.79.08-.91.46-.12.38.08.79.46.91l2.09.69,6.41,9.81-.41-.12-5.21-1.59c-.39-.11-.79.1-.9.48-.12.38.1.79.48.9l1.86.57,8.28,11.4h-12.89ZM74,43.64h-6.8c-1.37,0-2.48,1.11-2.48,2.48v9.7h-6.18s-.02,0-.03,0h-.89c.61-.71.99-1.63.99-2.63,0-1.4-.71-2.63-1.78-3.37,1.07-.74,1.78-1.97,1.78-3.37s-.71-2.63-1.78-3.37c1.08-.74,1.78-1.97,1.78-3.37,0-.74-.21-1.42-.56-2.02l12.54-12.88,12.54,12.88c-.34.6-.55,1.28-.55,2.02,0,1.4.71,2.63,1.78,3.37-1.07.74-1.78,1.97-1.78,3.37s.71,2.63,1.78,3.37c-1.07.74-1.78,1.97-1.78,3.37,0,1.01.38,1.93.99,2.64h-7.1v-9.7c0-1.37-1.11-2.48-2.48-2.48M75.04,55.82h-8.86v-9.7c0-.57.46-1.03,1.03-1.03h6.8c.57,0,1.03.46,1.03,1.03v9.7ZM45.92,44.4l1.87-.57c.38-.12.6-.52.48-.9-.11-.38-.52-.59-.9-.48l-5.21,1.59-.41.12,6.41-9.81,2.09-.69c.38-.13.58-.53.46-.91-.12-.38-.53-.59-.92-.46l-4.03,1.33,5.67-8.17,2.9-.54c.39-.07.65-.45.58-.84-.08-.39-.46-.65-.84-.58l-4.45.83,7.86-11.78,7.25,10.87-13.01,13.36c-.05.05-.1.1-.15.16l-2.38,2.44c-.28.29-.27.75.01,1.02.29.28.75.28,1.02-.01l.26-.27c.12,1.23.77,2.31,1.74,2.98-1.07.74-1.78,1.97-1.78,3.37s.71,2.63,1.78,3.37c-1.07.74-1.78,1.97-1.78,3.37,0,1.01.38,1.92.98,2.63h-13.77s8.28-11.41,8.28-11.41ZM76.79,2.32l-.26,7.33c0,.19.06.37.19.51l6.79,7.49h-12.91c-.2,0-.39.08-.52.22l-4.33,4.45-4.59-6.89,15.63-13.12ZM105.65,5.04l4.19,7.95-.29,4.66h-6.27l-9.54-6.61,11.91-6.01ZM110.98,18.1l.32-5.22c0-.13-.02-.26-.08-.38l-3.07-5.83,10.9,8.39-4.49,6.72-3.59-3.68ZM78.25,2.07l22.49,15.58h-15.27l-7.48-8.25.26-7.34ZM121.29,39.13l-2.04-2.1c-.28-.29-.74-.29-1.02-.01-.29.28-.29.74-.01,1.02l1.06,1.09h-7.65l-14.53-14.93c-.28-.29-.74-.29-1.02-.01-.29.28-.29.74-.01,1.02l13.55,13.92h-7.52l-9.04-9.28c-.28-.28-.74-.29-1.02-.01-.29.28-.29.74-.01,1.02l8.05,8.27h-8.24l-2.15-2.21c-.06-.06-.11-.12-.18-.18l-17.17-17.64h8.24l6.07,6.23c.14.15.33.22.52.22s.36-.07.51-.2c.29-.28.29-.74.01-1.02l-5.09-5.22h7.52l1.72,1.76c.14.15.33.22.52.22s.36-.07.51-.2c.29-.28.29-.74.01-1.02l-.73-.75h7.65l11.56,11.87c.14.15.33.22.52.22s.36-.07.5-.2c.29-.28.29-.74.01-1.02l-10.58-10.86h8.14l3.81,3.92h0s0,0,0,0l15.68,16.1h-8.14ZM86.68,43.8c1.46,0,2.64,1.18,2.64,2.64s-1.18,2.64-2.64,2.64-2.64-1.18-2.64-2.64,1.18-2.64,2.64-2.64M86.68,37.05c.71,0,1.34.29,1.81.74l.1.1c.45.47.73,1.1.73,1.81,0,1.46-1.18,2.64-2.64,2.64s-2.64-1.18-2.64-2.64,1.18-2.64,2.64-2.64M57.12,36.56c-.64-.53-1.43-.87-2.31-.93l15.79-16.22,15.79,16.22c-.88.06-1.68.4-2.31.93l-12.96-13.31c-.28-.28-.76-.28-1.04,0l-12.96,13.31ZM54.52,42.34c-1.46,0-2.64-1.18-2.64-2.64,0-.7.28-1.33.73-1.81l.09-.1c.47-.45,1.11-.74,1.82-.74,1.46,0,2.64,1.18,2.64,2.64s-1.18,2.64-2.64,2.64M54.52,49.08c-1.46,0-2.64-1.18-2.64-2.64s1.18-2.64,2.64-2.64,2.64,1.18,2.64,2.64-1.18,2.64-2.64,2.64M54.58,55.81h-.11c-1.43-.03-2.59-1.19-2.59-2.63s1.18-2.64,2.64-2.64,2.64,1.18,2.64,2.64-1.15,2.6-2.59,2.63M84.04,53.18c0-1.46,1.18-2.64,2.64-2.64s2.64,1.18,2.64,2.64-1.18,2.64-2.64,2.64-2.64-1.18-2.64-2.64M104.9,43.8h21.42c1.46,0,2.64,1.18,2.64,2.64s-1.18,2.64-2.64,2.64h-6.35s-.03,0-.05,0h-.07c-.4,0-.73.33-.73.73s.33.73.73.73h6.46c1.46,0,2.64,1.18,2.64,2.64s-1.15,2.6-2.58,2.63h-4.93s-.02.01-.03.01h-31.64c.61-.72.99-1.63.99-2.64s-.38-1.93-.99-2.64h22.09c.4,0,.73-.33.73-.73s-.33-.73-.73-.73h-.07s-.03,0-.05,0h-21.98c.61-.72.99-1.63.99-2.64s-.38-1.93-.99-2.64h7.93c.4,0,.73-.33.73-.73s-.33-.73-.73-.73h-7.93c.53-.62.87-1.39.95-2.25l.26.27c.14.14.32.22.52.22h37.27c-.36,1.02-1.32,1.77-2.46,1.77h-21.42c-.4,0-.73.33-.73.73s.33.73.73.73M144.31,56.08l-7.97-10.97.98.29,2.33.71c.07.02.14.03.21.03.07,0,.12-.04.18-.06.04-.01.08-.02.13-.04.07-.04.13-.08.19-.14.03-.03.08-.04.1-.08.03-.04.03-.09.05-.14,0-.02.03-.04.04-.06,0-.03,0-.06,0-.09.04-.18.03-.38-.07-.54l-6.48-9.92,1.8.6c.29.1.62,0,.81-.25.19-.25.19-.59.01-.85l-6.09-8.77.18.03.97.18s.09.01.13.01c.04,0,.06-.03.1-.04.22-.01.44-.11.56-.3.16-.24.15-.56,0-.8l-9.4-14.09c-.27-.4-.94-.4-1.2,0l-2.03,3.04-13.45-10.35s-.02,0-.03-.01c-.09-.06-.18-.1-.29-.11-.03,0-.07,0-.1-.01-.11,0-.22.01-.32.06,0,0-.02,0-.02,0h-.01s-13.23,6.68-13.23,6.68L77.98.13s-.03,0-.04-.01c-.1-.06-.22-.11-.35-.12h-.03s0,0-.02,0c-.16,0-.32.06-.45.16l-16.75,14.06-2.28-3.42c-.27-.4-.94-.4-1.2,0l-9.4,14.09c-.16.24-.16.55,0,.8.13.19.34.29.56.3.04,0,.06.04.1.04.04,0,.09,0,.13-.01l.97-.18.18-.03-6.09,8.77c-.18.25-.17.6.02.85.19.25.52.35.81.25l1.8-.6-6.48,9.92c-.11.17-.11.36-.08.54,0,.03,0,.06,0,.09,0,.02.03.04.04.06.02.05.02.1.05.14.03.04.07.05.1.08.06.06.12.1.19.14.04.02.08.03.13.04.06.02.11.06.18.06.07,0,.14-.01.21-.03l2.33-.71.98-.29-7.97,10.97c-.16.22-.18.51-.06.75.12.24.37.4.64.4l18.13.02c.06,0,.11.02.17.02h0,0s32.16,0,32.16,0h0s39.63,0,39.63,0c.06,0,.12-.02.18-.02l17.24-.02c.27,0,.52-.15.64-.4.12-.24.1-.53-.06-.75"/>
    </g>
  </g>
</svg>