<?xml version="1.0" encoding="UTF-8"?>
<svg id="Calque_2" xmlns="http://www.w3.org/2000/svg" version="1.1" viewBox="0 0 226.3 144.2">
  <!-- Generator: Adobe Illustrator 30.3.0, SVG Export Plug-In . SVG Version: 2.1.1 Build 22)  -->
  <defs>
    <style>
      .st0 {
        fill: #fff;
      }
    </style>
  </defs>
  <g id="Calque_1-2">
    <path class="st0" d="M169.8,64c-13.6,0-23.1,9.5-23.1,23.1s10.9,23.1,23.1,23.1,23.1-9.5,23.1-23.1-9.5-23.1-23.1-23.1Z"/>
    <path class="st0" d="M56.9,64c-13.6,0-23.1,9.5-23.1,23.1s10.9,23.1,23.1,23.1,23.1-9.5,23.1-23.1-9.5-23.1-23.1-23.1Z"/>
    <path class="st0" d="M209.6,45.2c0,0-.2-.2-.3-.3l9.5-9.5c2.7-2.7,1.4-6.8-2.7-6.8h-23.1C173.9,12.2,142.6,0,112.7,0S51.4,13.6,32.4,28.6H9.3c-2.7,0-5.4,4.1-2.7,6.8l9.5,9.5C6.9,53,2.3,64.9.6,77.8c-1.8,13.3.4,26.9,7.3,38.3,8.9,14.7,24,25,42.1,26.8,17.7,1.4,32.7-4.1,44.9-13.6l14.7,11c1.1.8,2.3,1.2,3.7,1.2s2.6-.4,3.7-1.2l14.7-11c9.5,9.5,23.1,15,38.1,15h0c14.1,0,27.1-5.6,37.1-14.5,24.8-22,25.9-60.9,2.6-84.5h0ZM56.9,132c-24.5,0-43.5-19.1-43.5-43.6s20.4-43.5,43.5-43.5,43.6,19,43.6,43.5-19.1,43.6-43.6,43.6ZM112.7,84.4c-2.7-27.2-23.1-49-50.3-53.1,13.6-10.9,31.3-15,50.3-15s36.7,5.4,50.3,15c-27.2,4.1-50.3,25.9-50.3,53.1ZM169.8,132c-24.5,0-43.6-19.1-43.6-43.6s20.4-43.5,43.6-43.5,43.6,19,43.6,43.5-19.1,43.6-43.6,43.6Z"/>
  </g>
</svg>