<?xml version="1.0" encoding="UTF-8"?>
<svg id="Calque_2" xmlns="http://www.w3.org/2000/svg" version="1.1" viewBox="0 0 229.5 230.6">
  <!-- Generator: Adobe Illustrator 30.3.0, SVG Export Plug-In . SVG Version: 2.1.1 Build 94)  -->
  <defs>
    <style>
      .st0 {
        fill: #fff;
      }
    </style>
  </defs>
  <g id="Calque_1-2">
    <g id="logo">
      <path class="st0" d="M196.1,33.5C174.5,11.9,145.8,0,115.2,0,52.2,0,1,51.2,1,114.2c0,20.1,5.3,39.8,15.2,57.1L0,230.6l60.6-15.9c16.7,9.1,35.5,13.9,54.6,13.9h0c63,0,114.3-51.2,114.3-114.2,0-30.5-11.9-59.2-33.4-80.8ZM115.2,209.3h0c-17,0-33.8-4.6-48.3-13.2l-3.5-2.1-36,9.4,9.6-35-2.3-3.6c-9.5-15.1-14.5-32.6-14.5-50.5,0-52.4,42.6-94.9,95-94.9,25.4,0,49.2,9.9,67.1,27.8,17.9,18,27.8,41.8,27.8,67.2,0,52.4-42.6,95-95,95h0ZM167.4,138.2c-2.9-1.4-16.9-8.3-19.5-9.3-2.6-.9-4.5-1.4-6.4,1.4-1.9,2.9-7.4,9.3-9,11.2-1.7,1.9-3.3,2.1-6.2.7s-12.1-4.4-23-14.2c-8.5-7.6-14.2-16.9-15.9-19.8s-.2-4.4,1.2-5.8,2.8-3.3,4.3-5,1.9-2.9,2.9-4.8c.9-1.9.5-3.6-.2-5-.7-1.4-6.4-15.5-8.8-21.2-2.3-5.6-4.7-4.8-6.4-4.9-1.7,0-3.6,0-5.5,0s-5,.7-7.6,3.6c-2.6,2.9-10,9.8-10,23.8s10.2,27.6,11.7,29.5c1.4,1.9,20.1,30.7,48.8,43.1,6.8,2.9,12.1,4.7,16.3,6,6.8,2.2,13.1,1.9,18,1.1,5.5-.8,16.9-6.9,19.3-13.6,2.4-6.7,2.4-12.4,1.7-13.6s-2.6-1.9-5.5-3.3h0Z"/>
    </g>
  </g>
</svg>